<?xml version="1.0" encoding="UTF-8"?>
<svg width="256px" height="256px" viewBox="0 0 256 256" version="1.1" xmlns="http://www.w3.org/2000/svg" xmlns:xlink="http://www.w3.org/1999/xlink">
    <title>factory-icon</title>
    <g id="factory-icon" stroke="none" fill="none" fill-rule="evenodd" stroke-width="1">
        <g id="Group">
            <path d="M114,176 C114,179.313708 111.313708,182 108,182 L80,182 C76.6862915,182 74,179.313708 74,176 C74,172.686292 76.6862915,170 80,170 L108,170 C111.313708,170 114,172.686292 114,176 Z M176,170 L148,170 C144.686292,170 142,172.686292 142,176 C142,179.313708 144.686292,182 148,182 L176,182 C179.313708,182 182,179.313708 182,176 C182,172.686292 179.313708,170 176,170 Z M238,216 C238,219.313708 235.313708,222 232,222 L24,222 C20.6862915,222 18,219.313708 18,216 C18,212.686292 20.6862915,210 24,210 L34,210 L34,88 C34,85.7273676 35.2840143,83.6497889 37.3167184,82.6334369 C39.3494226,81.6170848 41.7818941,81.8364206 43.6,83.2 L98,124 L98,88 C98,85.7273676 99.2840143,83.6497889 101.316718,82.6334369 C103.349423,81.6170848 105.781894,81.8364206 107.6,83.2 L149,114.28 L161,30.02 C162.022385,23.1459759 167.910418,18.0481114 174.86,18.02 L192.98,18.02 C199.929582,18.0481114 205.817615,23.1459759 206.84,30.02 L221.84,135.15 C221.84,135.15 221.9,135.74 221.9,136 L221.9,210 L231.9,210 C233.508554,209.973187 235.060494,210.593471 236.207434,211.721609 C237.354374,212.849746 238,214.391222 238,216 Z M160,122.49 L170,130 L209.08,130 L195,31.72 C194.859501,30.7259675 194.003864,29.9901198 193,29.9999017 L174.94,29.9999017 C173.936136,29.9901198 173.080499,30.7259675 172.94,31.72 L160,122.49 Z M46,210 L210,210 L210,142 L168,142 C166.701779,142 165.438577,141.578933 164.4,140.8 L150,130 L150,130 L110,100 L110,136 C110,138.272632 108.715986,140.350211 106.683282,141.366563 C104.650577,142.382915 102.218106,142.163579 100.4,140.8 L46,100 L46,210 Z" id="Shape" fill="#FC6736" fill-rule="nonzero"></path>
            <rect id="Rectangle" x="0" y="0" width="256" height="256"></rect>
        </g>
    </g>
</svg>