<svg xmlns="http://www.w3.org/2000/svg" viewBox="0 0 256 256" fill="none">
  <rect width="256" height="256" rx="64" fill="url(#grad1)"/>
  <defs>
    <linearGradient id="grad1" x1="0%" y1="0%" x2="100%" y2="100%">
      <stop offset="0%" style="stop-color:#667eea;stop-opacity:1" />
      <stop offset="100%" style="stop-color:#764ba2;stop-opacity:1" />
    </linearGradient>
  </defs>
  <g transform="translate(32, 32)">
    <path d="M80,176V135.3a8.1,8.1,0,0,0-3.6-6.7L40,105.3V87.5a8,8,0,0,1,3.6-6.6l64-42.7a8.1,8.1,0,0,1,8.8,0l64,42.7A8,8,0,0,1,184,87.5v17.8l-36.4,23.3a8.1,8.1,0,0,0-3.6,6.7V176a8,8,0,0,1-8,8H88A8,8,0,0,1,80,176Zm88,0V145.9l28.4-18.2a8.1,8.1,0,0,1,8.9,0L232,145.9V176a8,8,0,0,1-8,8H176A8,8,0,0,1,168,176ZM24,176V145.9l26.7-17.1a8.1,8.1,0,0,1,8.9,0L88,145.9V176a8,8,0,0,1-8,8H32A8,8,0,0,1,24,176Z"
          fill="white"
          stroke="white"
          stroke-width="2"/>
  </g>
</svg>
